<?xml version="1.0" encoding="UTF-8"?>
<svg width="18px" height="17px" viewBox="0 0 18 17" version="1.1" xmlns="http://www.w3.org/2000/svg" xmlns:xlink="http://www.w3.org/1999/xlink">
    <!-- Generator: Sketch 53.2 (72643) - https://sketchapp.com -->
    <title>ico.internodes.21x21</title>
    <desc>Created with Sketch.</desc>
    <g id="Symbols" stroke="none" stroke-width="1" fill="none" fill-rule="evenodd">
        <g id="li.item" transform="translate(-805.000000, -38.000000)">
            <g transform="translate(5.000000, 5.000000)" id="ico.internodes.21x21">
                <g transform="translate(798.000000, 31.000000)">
                    <rect id="Rectangle-Copy-11" fill-opacity="0" fill="#FFFFFF" x="0" y="0" width="21" height="21"></rect>
                    <path d="M17.1118286,6.30364415 C17.3963404,6.72494365 17.6398391,7.17400281 17.8381926,7.64537653 L15.9947546,8.42109311 C15.9292539,8.26543521 15.8571273,8.113035 15.7786364,7.96424011 L12.3159014,12.2773494 C11.624392,13.1386789 10.3655673,13.2763453 9.50423783,12.5848358 C9.38906563,12.492371 9.28449028,12.3874329 9.19242487,12.2719412 L5.55713522,7.71164232 C5.30861354,8.13033838 5.11279748,8.57853134 4.97511868,9.04586813 L3.0566399,8.48067861 C3.27372469,7.74380622 3.59815591,7.04309399 4.01804664,6.40076128 L5.04980112,7.0752157 L2,3.24938448 L3.56390155,2.0027041 L5.80317529,4.81176708 C7.21368199,3.73226961 8.95295272,3.12604429 10.7882593,3.12604429 C12.6152246,3.12604429 14.3475704,3.72667325 15.7556,4.79827165 L18.0021633,2 L19.5617383,3.25208858 L17.1118286,6.30364415 L17.1118286,6.30364415 Z M7.05017659,6.37607122 L10.7563264,11.0252608 L14.502956,6.3585384 C13.4456439,5.56769869 12.1530379,5.12604429 10.7882593,5.12604429 C9.41298061,5.12604429 8.11125867,5.57464971 7.05017659,6.37607122 L7.05017659,6.37607122 Z M2.73913045,10.8035788 L4.73891777,10.7744122 C4.74230916,11.0069405 4.75954955,11.2402907 4.7899428,11.4675133 C4.84279606,11.8445088 4.91741014,12.1737752 5.02109007,12.4966147 L3.11687851,13.1081524 C2.97777056,12.6749968 2.87784887,12.2340498 2.80846651,11.7390145 C2.76673989,11.4272635 2.74367329,11.115055 2.73913045,10.8035788 Z M4.14501083,15.1852424 L5.78605238,14.042009 C6.1132003,14.5116098 6.50811368,14.9310973 6.9570302,15.2869485 L5.71463954,16.85426 C5.11325522,16.3775492 4.58393526,15.8152915 4.14501083,15.1852424 Z M7.74052088,18.0187017 L8.46882183,16.1560215 C9.00043374,16.3638797 9.56001392,16.4929616 10.1320726,16.5377965 L9.97580257,18.5316821 C9.20681042,18.4714126 8.454547,18.2978833 7.74052088,18.0187017 Z M12.2272841,18.3838883 L11.8138664,16.4270833 C12.3788166,16.3077252 12.9164819,16.1076987 13.4147745,15.8341434 L14.3772458,17.5873259 C13.7075188,17.9549961 12.9849324,18.2238186 12.2272841,18.3838883 Z M16.2589056,16.145003 L14.8167472,14.7592977 C15.2136165,14.3462601 15.5486458,13.8769434 15.8101764,13.3674829 L17.58943,14.2808595 C17.2390572,14.9633841 16.7904491,15.5918046 16.2589056,16.145003 Z M18.3360189,12.0615737 L16.3663084,11.7148161 C16.4647177,11.1558157 16.4811747,10.5823491 16.4126442,10.0072957 L18.3985917,9.77062569 C18.4903377,10.5404857 18.46824,11.3105093 18.3360189,12.0615737 Z" id="Shape" fill="#00A960" fill-rule="nonzero"></path>
                </g>
            </g>
        </g>
    </g>
</svg>