<?xml version="1.0" encoding="UTF-8"?>
<svg width="15px" height="17px" viewBox="0 0 15 17" version="1.1" xmlns="http://www.w3.org/2000/svg" xmlns:xlink="http://www.w3.org/1999/xlink">
    <!-- Generator: Sketch 53.2 (72643) - https://sketchapp.com -->
    <title>ico.point_cloud.21x21</title>
    <desc>Created with Sketch.</desc>
    <g id="Symbols" stroke="none" stroke-width="1" fill="none" fill-rule="evenodd">
        <g id="li.item" transform="translate(-745.000000, -38.000000)">
            <g transform="translate(5.000000, 5.000000)" id="ico.point_cloud.21x21">
                <g transform="translate(737.000000, 31.000000)">
                    <rect id="Rectangle-Copy-9" fill-opacity="0" fill="#FFFFFF" x="0" y="0" width="21" height="21"></rect>
                    <path d="M3,6 L6,6 L6,9 L3,9 L3,6 Z M9,2 L12,2 L12,5 L9,5 L9,2 Z M15,6 L18,6 L18,9 L15,9 L15,6 Z M3,13 L6,13 L6,16 L3,16 L3,13 Z M9,16 L12,16 L12,19 L9,19 L9,16 Z M15,13 L18,13 L18,16 L15,16 L15,13 Z M9,9 L12,9 L12,12 L9,12 L9,9 Z" id="Combined-Shape-Copy" fill="#00A960"></path>
                </g>
            </g>
        </g>
    </g>
</svg>