<?xml version="1.0" encoding="UTF-8"?>
<svg width="14px" height="14px" viewBox="0 0 14 14" version="1.1" xmlns="http://www.w3.org/2000/svg" xmlns:xlink="http://www.w3.org/1999/xlink">
    <!-- Generator: Sketch 53.2 (72643) - https://sketchapp.com -->
    <title>ico.reset_view.14x14</title>
    <desc>Created with Sketch.</desc>
    <g id="Page-1" stroke="none" stroke-width="1" fill="none" fill-rule="evenodd">
        <g id="2a-desktop-interaction_w_graph" transform="translate(-933.000000, -108.000000)" fill="#00A960" fill-rule="nonzero">
            <g id="Group-23" transform="translate(879.000000, 100.000000)">
                <g id="Group-21" transform="translate(41.000000, 0.000000)">
                    <g id="Group-14" transform="translate(13.000000, 8.000000)">
                        <path d="M11.9339337,2.05606629 C10.6652971,0.787429644 8.92420263,0 6.99062539,0 C3.12347092,0 0,3.13222014 0,6.99937461 C0,10.8665291 3.12347092,13.9987492 6.99062539,13.9987492 C10.2540838,13.9987492 12.9750907,11.7676986 13.7537711,8.74921826 L11.9339337,8.74921826 C11.2164978,10.7877861 9.27417136,12.2489056 6.99062539,12.2489056 C4.09463415,12.2489056 1.74109443,9.89536585 1.74109443,6.99937461 C1.74109443,4.10338336 4.09463415,1.74984365 6.99062539,1.74984365 C8.44299562,1.74984365 9.73787992,2.35353971 10.6827955,3.3072045 L7.86554722,6.12445278 L13.99,6.12445278 L13.99,0 L11.9339337,2.05606629 Z" id="ico.reset_view.14x14"></path>
                    </g>
                </g>
            </g>
        </g>
    </g>
</svg>