<?xml version="1.0" encoding="UTF-8" standalone="no" ?>
<!DOCTYPE svg PUBLIC "-//W3C//DTD SVG 1.1//EN" "http://www.w3.org/Graphics/SVG/1.1/DTD/svg11.dtd">
<svg xmlns="http://www.w3.org/2000/svg" xmlns:xlink="http://www.w3.org/1999/xlink" version="1.1" width="21" height="21" viewBox="0 0 21 21" xml:space="preserve">
<desc>Created with Fabric.js 4.6.0</desc>
<defs>
</defs>
<g transform="matrix(1 0 0 1 10.5 10.5)" id="rpqzYmlTo5OrMmRnJK_sx"  >
<path style="stroke: none; stroke-width: 0; stroke-dasharray: none; stroke-linecap: butt; stroke-dashoffset: 0; stroke-linejoin: miter; stroke-miterlimit: 4; fill: rgb(0,0,0); fill-rule: nonzero; opacity: 1;" vector-effect="non-scaling-stroke"  transform=" translate(-10.5, -10.5)" d="M 20.37787 0.00903 L 5.963670000000002 0 C 5.9635700000000025 0 5.963460000000002 0 5.963250000000002 0 C 5.798300000000002 0 5.640170000000002 0.06541 5.523410000000002 0.18207 L 0.18280000000000207 5.51491 C 0.06573000000000208 5.631880000000001 2.0816681711721685e-15 5.79032 2.0816681711721685e-15 5.9558 L 2.0816681711721685e-15 20.37702 C 2.0816681711721685e-15 20.721 0.27877000000000207 20.99998 0.6226500000000021 20.99998 L 15.033490000000002 20.99998 C 15.198650000000002 20.99998 15.356990000000001 20.93436 15.473750000000003 20.81749 L 20.81762 15.47068 C 20.93438 15.35371 21 15.19548 21 15.0301 L 21 0.6319799999999987 C 21 0.28810999999999864 20.72154 0.009229999999998628 20.37777 0.009019999999998696 z M 17.96465 15.47395 L 15.477099999999998 17.96255 L 15.477099999999998 15.47395 z M 7.53845 5.51512 L 7.53845 2.0051799999999997 L 17.56689 2.0051799999999997 L 14.059050000000001 5.51512 z M 15.47699 13.45764 L 15.47699 6.947539999999999 L 18.98504 3.437919999999999 L 18.98504 13.457539999999998 z M 7.53845 13.45764 L 7.53845 7.53144 L 13.46181 7.53144 L 13.46181 13.45764 z M 3.44104 18.98379 L 6.948980000000001 15.473959999999998 L 13.46171 15.473959999999998 L 13.46171 18.98379 z M 3.0434 5.51512 L 5.52318 3.0338699999999994 L 5.52318 5.51512 z M 5.52319 7.53144 L 5.52319 14.0491 L 2.0152499999999995 17.55883 L 2.0152499999999995 7.53144 z" stroke-linecap="round" />
</g>
</svg>