<?xml version="1.0" encoding="UTF-8" standalone="no" ?>
<!DOCTYPE svg PUBLIC "-//W3C//DTD SVG 1.1//EN" "http://www.w3.org/Graphics/SVG/1.1/DTD/svg11.dtd">
<svg xmlns="http://www.w3.org/2000/svg" xmlns:xlink="http://www.w3.org/1999/xlink" version="1.1" width="21" height="21" viewBox="0 0 21 21" xml:space="preserve">
<desc>Created with Fabric.js 4.6.0</desc>
<defs>
</defs>
<g transform="matrix(0.68 0 0 0.68 10.5 10.49)" id="1J_-mIcBgF_BQEBzvZqaQ"  >
<path style="stroke: none; stroke-width: 1; stroke-dasharray: none; stroke-linecap: butt; stroke-dashoffset: 0; stroke-linejoin: miter; stroke-miterlimit: 4; fill: rgb(0,0,0); fill-rule: nonzero; opacity: 1;" vector-effect="non-scaling-stroke"  transform=" translate(-15.28, -15.28)" d="M 26.311 23.224 C 25.499 21.808 24.239 20.849 22.909 20.488 C 21.858 20.201 20.768 20.288999999999998 19.825 20.822 L 17.02 15.918 C 18.756 12.454999999999998 22.653 4.690999999999999 23.352 3.4669999999999987 C 24.258 1.884 22.637 0 22.637 0 L 15.277000000000001 12.872 L 7.919 0 C 7.919 0 6.2989999999999995 1.884 7.204 3.466 C 7.904 4.691000000000001 11.802 12.454 13.536 15.917000000000002 L 10.732 20.821 C 9.789 20.288 8.697 20.200000000000003 7.648 20.487000000000002 C 6.316 20.848000000000003 5.0569999999999995 21.807000000000002 4.244999999999999 23.223000000000003 C 2.786999999999999 25.770000000000003 3.3439999999999994 28.825000000000003 5.483999999999999 30.050000000000004 C 6.432999999999999 30.595000000000006 7.531999999999999 30.682000000000006 8.591 30.395000000000003 C 9.92 30.032000000000004 11.181999999999999 29.073000000000004 11.992999999999999 27.660000000000004 C 12.347999999999999 27.036000000000005 12.582999999999998 26.383000000000003 12.703 25.734000000000005 L 12.703 25.735000000000007 C 12.703999999999999 25.730000000000008 12.703999999999999 25.725000000000005 12.709 25.720000000000006 C 12.716 25.666000000000007 12.725999999999999 25.612000000000005 12.731 25.553000000000004 C 13.333 21.514000000000003 14.471 19.451000000000004 15.276 18.449000000000005 C 16.083 19.451000000000004 17.222 21.513000000000005 17.823 25.553000000000004 C 17.829 25.612000000000005 17.839 25.666000000000004 17.844 25.720000000000006 C 17.848000000000003 25.725000000000005 17.848000000000003 25.730000000000008 17.85 25.735000000000007 L 17.85 25.734000000000005 C 17.971 26.382000000000005 18.205000000000002 27.036000000000005 18.559 27.660000000000004 C 19.371000000000002 29.073000000000004 20.633000000000003 30.032000000000004 21.963 30.395000000000003 C 23.022000000000002 30.682000000000002 24.121000000000002 30.595000000000002 25.072000000000003 30.050000000000004 C 27.213 28.825 27.768 25.771 26.311 23.224 z M 9.911 26.468 C 9.450999999999999 27.271 8.722 27.876 7.962999999999999 28.083 C 7.624999999999999 28.174999999999997 7.129 28.230999999999998 6.6739999999999995 27.97 C 5.704 27.415 5.545 25.784 6.327999999999999 24.413999999999998 C 6.795999999999999 23.601999999999997 7.504999999999999 23.011 8.277999999999999 22.799999999999997 C 8.613 22.708999999999996 9.108999999999998 22.653999999999996 9.565999999999999 22.912999999999997 C 10.537 23.47 10.695 25.097 9.911 26.468 z M 23.881 27.97 C 23.426000000000002 28.232 22.932 28.174999999999997 22.594 28.083 C 21.834 27.875999999999998 21.106 27.270999999999997 20.645 26.468 C 19.862 25.097 20.02 23.47 20.991 22.913 C 21.448 22.653 21.944 22.709 22.28 22.8 C 23.051000000000002 23.011 23.762 23.602 24.227 24.414 C 25.01 25.784 24.852 27.415 23.881 27.97 z" stroke-linecap="round" />
</g>
</svg>