<?xml version="1.0" encoding="iso-8859-1"?>
<!-- Generator: Adobe Illustrator 19.0.0, SVG Export Plug-In . SVG Version: 6.00 Build 0)  -->
<svg height="21px" width="21px" version="1.1" id="Capa_1" xmlns="http://www.w3.org/2000/svg" xmlns:xlink="http://www.w3.org/1999/xlink" x="0px" y="0px"
	 viewBox="0 0 425.273 425.273" style="enable-background:new 0 0 24 24;" xml:space="preserve">
<g fill="#00a960">
	<g>
		<g>
			<path d="M93.518,319.216c-8.067,0.441-14.249,7.338-13.808,15.405c0.186,3.409,1.56,6.646,3.882,9.15
				c5.121,5.482,13.717,5.775,19.199,0.654c0.225-0.21,0.443-0.429,0.654-0.654c5.494-5.923,5.147-15.179-0.777-20.673
				C100.165,320.776,96.928,319.403,93.518,319.216z"/>
			<path d="M317.127,0l-21.943,21.42l57.469,57.992c3.03,2.672,3.32,7.294,0.648,10.324c-0.202,0.229-0.419,0.446-0.648,0.648
				c-1.554,1.446-3.627,2.2-5.747,2.09c-1.951,0.028-3.831-0.724-5.224-2.09L283.69,32.914l-29.257,29.257l37.616,37.094
				c3.052,3.224,3.052,8.27,0,11.494c-1.393,1.365-3.274,2.118-5.224,2.09c-2.12,0.11-4.193-0.644-5.747-2.09l-37.616-37.616
				L214.204,102.4l57.992,57.469c2.614,3.385,2.614,8.108,0,11.494c-3.315,2.813-8.179,2.813-11.494,0l-57.469-57.992
				l-29.257,29.257l37.616,37.616c2.987,3.047,2.987,7.924,0,10.971c-2.943,3.174-7.901,3.362-11.075,0.419
				c-0.145-0.134-0.285-0.274-0.419-0.419L163.004,153.6l-29.257,29.257l57.469,57.992c3.03,2.672,3.32,7.294,0.648,10.324
				c-0.202,0.229-0.419,0.446-0.648,0.648c-1.554,1.446-3.627,2.2-5.747,2.09c-1.951,0.028-3.831-0.724-5.224-2.09l-57.992-57.469
				l-29.257,29.257l37.616,37.094c3.052,3.224,3.052,8.27,0,11.494c-1.393,1.365-3.274,2.118-5.224,2.09
				c-2.12,0.11-4.193-0.644-5.747-2.09L82.024,234.58L0,317.127l108.147,108.147l317.127-317.127L317.127,0z M114.951,354.73
				c-0.004,0.004-0.008,0.009-0.013,0.013c-11.832,11.825-31.009,11.825-42.841,0c-11.837-11.83-11.843-31.016-0.013-42.854
				c11.83-11.837,31.016-11.843,42.854-0.013C126.776,323.707,126.782,342.893,114.951,354.73z"/>
		</g>
	</g>

</g>
</svg>
