<?xml version="1.0" encoding="UTF-8" standalone="no" ?>
<!DOCTYPE svg PUBLIC "-//W3C//DTD SVG 1.1//EN" "http://www.w3.org/Graphics/SVG/1.1/DTD/svg11.dtd">
<svg xmlns="http://www.w3.org/2000/svg" xmlns:xlink="http://www.w3.org/1999/xlink" version="1.1" width="21" height="21" viewBox="0 0 21 21" xml:space="preserve">
<desc>Created with Fabric.js 4.6.0</desc>
<defs>
</defs>
<g transform="matrix(1 0 0 1 10.5 10.5)" id="UMYN95orGJXR9beqsJtmh"  >
<path style="stroke: none; stroke-width: 1; stroke-dasharray: none; stroke-linecap: butt; stroke-dashoffset: 0; stroke-linejoin: miter; stroke-miterlimit: 4; fill: rgb(0,0,0); fill-rule: nonzero; opacity: 1;" vector-effect="non-scaling-stroke"  transform=" translate(-10.5, -10.5)" d="M 20.92062 8.9424 C 20.83925 8.45446 20.39783 7.957389999999999 19.941499999999998 7.847459999999999 L 19.600879999999997 7.762719999999999 C 18.797529999999995 7.503789999999999 18.086149999999996 6.935739999999999 17.634129999999995 6.099729999999999 C 17.182109999999994 5.259099999999999 17.075009999999995 4.3038099999999995 17.272089999999995 3.428739999999999 L 17.272089999999995 3.428739999999999 L 17.379189999999994 3.085069999999999 C 17.514109999999995 2.610889999999999 17.338449999999995 1.953379999999999 16.980719999999994 1.6281899999999991 C 16.980719999999994 1.6281899999999991 16.659319999999994 1.337339999999999 15.753169999999994 0.7783199999999991 C 14.846919999999994 0.22391999999999912 14.457049999999994 0.07050999999999907 14.457049999999994 0.07050999999999907 C 14.015739999999994 -0.10127000000000091 13.398649999999993 0.061269999999999075 13.077349999999994 0.4278299999999991 L 12.835219999999994 0.7004099999999991 C 12.226749999999994 1.316659999999999 11.406279999999994 1.690039999999999 10.502119999999994 1.690039999999999 C 9.595869999999994 1.690039999999999 8.768889999999994 1.3120399999999992 8.160409999999995 0.6912799999999991 L 7.928989999999995 0.4255199999999991 C 7.611889999999995 0.0612699999999991 6.990609999999995 -0.1035800000000009 6.549289999999996 0.0681999999999991 C 6.549289999999996 0.0681999999999991 6.155119999999996 0.2217099999999991 5.248869999999996 0.7760099999999992 C 4.342619999999996 1.3394399999999993 4.025519999999996 1.6304999999999992 4.025519999999996 1.6304999999999992 C 3.6677899999999957 1.9512799999999992 3.4899199999999957 2.604059999999999 3.6270499999999957 3.0827599999999995 L 3.725639999999996 3.4309399999999997 C 3.918419999999996 4.30591 3.815619999999996 5.25658 3.363599999999996 6.09731 C 2.911579999999996 6.93794 2.189599999999996 7.51061 1.384039999999996 7.76492 L 1.054129999999996 7.84504 C 0.602109999999996 7.95498 0.15648999999999602 8.44743 0.07500999999999602 8.93998 C 0.07500999999999602 8.93998 0.00003999999999602932 9.37983 0.00003999999999602932 10.49766 C 0.00003999999999602932 11.61549 0.07500999999999602 12.05534 0.07500999999999602 12.05534 C 0.15637999999999602 12.547899999999998 0.597799999999996 13.04035 1.054129999999996 13.150279999999999 L 1.375529999999996 13.2304 C 2.183189999999996 13.48471 2.907369999999996 14.05738 3.359399999999996 14.90263 C 3.811419999999996 15.74326 3.918519999999996 16.69855 3.721439999999996 17.573620000000002 L 3.721439999999996 17.573620000000002 L 3.627149999999996 17.912670000000002 C 3.4922299999999957 18.386850000000003 3.667889999999996 19.04436 4.0256199999999955 19.369550000000004 C 4.0256199999999955 19.369550000000004 4.347019999999995 19.660400000000003 5.2531699999999955 20.219420000000003 C 6.1594199999999955 20.778340000000004 6.549289999999996 20.92723 6.549289999999996 20.92723 C 6.990599999999995 21.09901 7.607689999999995 20.93647 7.928989999999995 20.56991 L 8.156099999999995 20.31098 C 8.768879999999996 19.69022 9.591549999999994 19.31222 10.502009999999995 19.31222 C 11.412569999999995 19.31222 12.239549999999994 19.69474 12.847919999999995 20.3155 L 12.847919999999995 20.3155 L 13.075029999999995 20.57443 C 13.392129999999995 20.938679999999998 14.013409999999995 21.10353 14.454729999999994 20.93175 C 14.454729999999994 20.93175 14.848899999999995 20.77824 15.755149999999993 20.223940000000002 C 16.661399999999993 19.665020000000002 16.978499999999993 19.374070000000003 16.978499999999993 19.374070000000003 C 17.336229999999993 19.053290000000004 17.514099999999992 18.39589 17.376969999999993 17.917190000000005 L 17.27837999999999 17.564490000000006 C 17.085599999999992 16.693930000000005 17.18839999999999 15.743370000000006 17.64041999999999 14.907250000000007 C 18.092439999999993 14.066620000000007 18.816629999999993 13.489330000000006 19.62428999999999 13.235020000000006 L 19.62428999999999 13.235020000000006 L 19.945689999999992 13.154900000000005 C 20.397709999999993 13.044960000000005 20.84332999999999 12.552510000000005 20.924809999999994 12.059960000000006 C 20.924809999999994 12.059960000000006 20.999779999999994 11.620110000000006 20.999779999999994 10.502280000000006 C 20.993379999999995 9.382030000000006 20.920509999999993 8.942290000000007 20.920509999999993 8.942290000000007 L 20.920509999999993 8.942290000000007 z M 10.50186 14.97602 C 8.19228 14.97602 6.31561 12.973980000000001 6.31561 10.50008 C 6.31561 8.03069 8.18807 6.028550000000001 10.50186 6.028550000000001 C 12.811440000000001 6.028550000000001 14.688110000000002 8.03059 14.688110000000002 10.50449 C 14.683810000000001 12.973880000000001 12.811340000000001 14.97602 10.50186 14.97602 z" stroke-linecap="round" />
</g>
</svg>