<?xml version="1.0" encoding="UTF-8"?>
<!-- This icon was created by Morgane Schieber (schieber.morgane@gmail.com) -->
<svg width="24" height="24" version="1.1" viewBox="0 0 5.5562 5.5563" xmlns="http://www.w3.org/2000/svg" xmlns:cc="http://creativecommons.org/ns#" xmlns:dc="http://purl.org/dc/elements/1.1/" xmlns:rdf="http://www.w3.org/1999/02/22-rdf-syntax-ns#">
 <metadata>
  <rdf:RDF>
   <cc:Work rdf:about="">
    <dc:format>image/svg+xml</dc:format>
    <dc:type rdf:resource="http://purl.org/dc/dcmitype/StillImage"/>
    <dc:title/>
   </cc:Work>
  </rdf:RDF>
 </metadata>
 <g fill="#00a960" stroke-width=".26458">
  <path d="m-47.851-28.552 113.94-3.9656"/>
  <path d="m0.26872 1.6539v2.9817h5.0235v-2.9817zm2.4458 0.65422a0.88609 0.90381 0 0 1 0.014469 0 0.88609 0.90381 0 0 1 0.88625 0.90382 0.88609 0.90381 0 0 1-0.88625 0.90382 0.88609 0.90381 0 0 1-0.88573-0.90382 0.88609 0.90381 0 0 1 0.87126-0.90382z"/>
  <path d="m1.5058 1.98 0.42532-0.88609 1.7722-0.035444 0.38988 0.9747z"/>
  <rect x=".62026" y="1.298" width=".46077" height=".62026"/>
 </g>
</svg>
