<?xml version="1.0" encoding="UTF-8"?>
<!-- This icon was created by Morgane Schieber (schieber.morgane@gmail.com) -->
<svg width="21px" height="21px" inkscape:version="0.92.3 (2405546, 2018-03-11)" sodipodi:docname="ico.label.21x21.svg" version="1.1" viewBox="0 0 15 17" xmlns="http://www.w3.org/2000/svg" xmlns:inkscape="http://www.inkscape.org/namespaces/inkscape" xmlns:sodipodi="http://sodipodi.sourceforge.net/DTD/sodipodi-0.dtd">
 <sodipodi:namedview bordercolor="#666666" borderopacity="1" gridtolerance="10" guidetolerance="10" inkscape:current-layer="svg1669" inkscape:cx="5.9119454" inkscape:cy="5.8207174" inkscape:pageopacity="0" inkscape:pageshadow="2" inkscape:window-height="1045" inkscape:window-maximized="0" inkscape:window-width="1920" inkscape:window-x="0" inkscape:window-y="0" inkscape:zoom="27.764706" objecttolerance="10" pagecolor="#ffffff" showgrid="false"/>
<!-- Generator: Sketch 53.2 (72643) - https://sketchapp.com -->
 <title>ico.label.21x21</title>
 <desc>Created with Sketch.</desc>
 <path d="m10.296 1.7156c-0.21368-0.26402-0.5989-0.30461-0.86292-0.090935l-8.7574 7.0877c-0.26402 0.21368-0.49422 5.4404-0.28054 5.7044 0.21368 0.26403 5.2398 0.96309 5.5038 0.74941l8.7574-7.0877c0.26402-0.21368 0.30462-0.5989 0.09093-0.86292zm1.3823 3.338c0.0095 0.011373 0.01881 0.022883 0.02796 0.034541 0.48377 0.59913 0.40199 1.468-0.18279 1.942-0.58541 0.47432-1.4533 0.37361-1.9388-0.22497-0.48533-0.59959-0.40337-1.4703 0.18303-1.9444 0.57283-0.46342 1.4185-0.37807 1.9106 0.19283z" fill="#00a960" stroke-width=".99877" inkscape:connector-curvature="0" sodipodi:nodetypes="ccccccccccccccccc"/>
 <rect x="2.6858" y="4.0871" width="1.0802" height="11.59" ry=".54008" fill="none"/>
</svg>
