<?xml version="1.0" encoding="UTF-8"?>
<!-- Created with Inkscape (http://www.inkscape.org/) -->
<svg id="SVGRoot" width="23.471" height="18.809" version="1.1" viewBox="0 0 23.471 18.809" xmlns="http://www.w3.org/2000/svg" xmlns:cc="http://creativecommons.org/ns#" xmlns:dc="http://purl.org/dc/elements/1.1/" xmlns:rdf="http://www.w3.org/1999/02/22-rdf-syntax-ns#">
 <metadata>
  <rdf:RDF>
   <cc:Work rdf:about="">
    <dc:format>image/svg+xml</dc:format>
    <dc:type rdf:resource="http://purl.org/dc/dcmitype/StillImage"/>
    <dc:title/>
   </cc:Work>
  </rdf:RDF>
 </metadata>
 <g transform="translate(-2.8675 2.8414)">
  <path d="m14.76-2.5696c-0.60186-0.02289-1.7233 0.12143-2.2562 0.18083-2.1314 0.23758-3.0694 1.4067-3.3078 2.1199-0.23836 0.71316 0.5144 1.3827 1.149 2.0559 0.63455 0.67315 1.5132 1.6102 1.7248 2.2701 0.21158 0.65985-0.28932 1.4578-0.85128 1.6608-0.66939 0.24191-1.1545 0.43955-2.9767-0.99038-0.90433-0.70966-1.6077-1.1414-2.4954-2.3758-0.49993-0.69516-1.3799-0.93474-1.7777-0.83459-0.85387 0.21496-0.8311 1.5847-0.83181 2.5344-7.122e-4 0.94972 0.33846 2.3484 0.84294 3.9977 0.57222 1.8708 1.4476 3.1033 3.0463 4.4372 1.5732 1.3127 3.1148 2.3747 5.1355 2.9099 2.0208 0.53523 3.804 0.24312 5.9979 0.0056 2.1939-0.23756 4.5676-0.71223 5.9924-1.9001 1.4248-1.1879 1.9363-3.24 1.9168-5.2997-0.019472-2.0597-0.57484-4.6577-1.5134-6.265-0.93855-1.6073-1.9132-2.7858-4.0978-3.5303-1.6385-0.55839-3.8919-0.9078-5.6975-0.97647zm-0.42286 1.6052c1.18 0 2.1366 0.95657 2.1366 2.1366 0 1.18-0.95657 2.1366-2.1366 2.1366-1.18-3e-7 -2.1366-0.95657-2.1366-2.1366 0-1.18 0.95657-2.1366 2.1366-2.1366zm8.6631 8.2319c0.78666 0 1.4244 0.63771 1.4244 1.4244 0 0.78666-0.63771 1.4244-1.4244 1.4244s-1.4244-0.63771-1.4244-1.4244c0-0.78666 0.63771-1.4244 1.4244-1.4244zm-12.78 2.6373c0.78666 0 1.4244 0.63771 1.4244 1.4244s-0.63771 1.4244-1.4244 1.4244c-0.78666 0-1.4244-0.63771-1.4244-1.4244s0.63771-1.4244 1.4244-1.4244zm9.4058 0.46737c0.78666 0 1.4244 0.63771 1.4244 1.4244s-0.63771 1.4244-1.4244 1.4244-1.4244-0.63771-1.4244-1.4244 0.63771-1.4244 1.4244-1.4244zm-4.7906 0.29211c0.78666 0 1.4244 0.63771 1.4244 1.4244s-0.63771 1.4244-1.4244 1.4244-1.4244-0.63771-1.4244-1.4244 0.63771-1.4244 1.4244-1.4244z" fill="#00a960" stroke-width="0"/>
 </g>
</svg>
