<?xml version="1.0" encoding="UTF-8"?>
<!-- This icon was created by Morgane Schieber (schieber.morgane@gmail.com) -->
<svg width="25" height="25" version="1.1" viewBox="0 0 5.5562 5.5563" xmlns="http://www.w3.org/2000/svg" xmlns:cc="http://creativecommons.org/ns#" xmlns:dc="http://purl.org/dc/elements/1.1/" xmlns:rdf="http://www.w3.org/1999/02/22-rdf-syntax-ns#">
 <metadata>
  <rdf:RDF>
   <cc:Work rdf:about="">
    <dc:format>image/svg+xml</dc:format>
    <dc:type rdf:resource="http://purl.org/dc/dcmitype/StillImage"/>
    <dc:title/>
   </cc:Work>
  </rdf:RDF>
 </metadata>
 <g fill="#00a960">
  <path d="m1.927 3.095c0.1253 0.20047 0.25059 0.40094 0.37588 0.60142"/>
  <path d="m101.64 253.3c-5.6014 53.214-11.203 106.43-16.804 159.64"/>
  <path d="m1.927 3.095c0.1253 0.20047 0.25059 0.40094 0.37588 0.60142"/>
  <path d="m1.0803 1.7305c-0.078637-0.054257 0.22512-0.89956 1.4034-1.1196 2e-7 6e-8 3e-7 0 4e-7 -6e-8 0.58018-0.10608 1.3409 0.015588 1.9491 0.55721-1e-7 2e-7 3e-7 3e-7 3e-7 3e-7 0.49586 0.44533 0.82905 1.146 0.80001 1.9-5.419e-4 0.013352-0.0012 0.026703-0.00196 0.040053-0.03782 0.65819-0.34205 1.2467-0.78276 1.6459-0.52664 0.47389-1.1891 0.63489-1.7475 0.57727-0.47135-0.050121-0.85258-0.24626-1.1169-0.46393l-1e-7 -3e-7c-0.58633-0.48365-0.63274-0.97463-0.56403-1.004 0.068713-0.029346 0.25869 0.36789 0.79426 0.67893 1e-7 -1e-7 2e-7 1e-7 2e-7 1e-7 0.241 0.14026 0.5611 0.25469 0.92136 0.25904 0.42134 0.00667 0.91504-0.15405 1.281-0.51115 0.30835-0.29809 0.52528-0.74459 0.5523-1.2199 5.491e-4 -0.00966 0.00102-0.019315 0.0014-0.02896 0.023572-0.54759-0.21347-1.0788-0.56108-1.4168 0 0-3e-7 -1e-7 -3e-7 -1e-7 -0.42381-0.41691-1.0047-0.56569-1.4612-0.53339 0 0-1e-7 1e-7 -2e-7 1e-7 -0.93451 0.061687-1.3888 0.69361-1.4674 0.63936z"/>
  <path d="m1.1834-0.12881 1.1865 1.7965-2.0142 0.094623z"/>
 </g>
</svg>
