<!-- This icon was created by Morgane Schieber (schieber.morgane@gmail.com) -->

<?xml version="1.0" encoding="UTF-8"?>
<svg width="24" height="24" version="1.1" viewBox="0 0 5.5562 5.5562" xmlns="http://www.w3.org/2000/svg" xmlns:cc="http://creativecommons.org/ns#" xmlns:dc="http://purl.org/dc/elements/1.1/" xmlns:rdf="http://www.w3.org/1999/02/22-rdf-syntax-ns#">
 <metadata>
  <rdf:RDF>
   <cc:Work rdf:about="">
    <dc:format>image/svg+xml</dc:format>
    <dc:type rdf:resource="http://purl.org/dc/dcmitype/StillImage"/>
    <dc:title/>
   </cc:Work>
  </rdf:RDF>
 </metadata>
 <g transform="matrix(.035914 0 0 .035914 -1.0212 .59009)">
  <path d="m-275.92-15.119 0.75594-2.2679" fill="none" stroke="#000" stroke-width=".26458px"/>
  <path d="m101.34 122.82c-5.5391-0.49475-11.453-1.3205-15.884-2.2178-21.189-4.2911-37.492-14.902-45.215-29.429-2.9685-5.5835-4.8533-13.041-4.8521-19.198 0.0023-11.391 5.1623-23.34 13.881-32.144 9.7498-9.8452 23.258-16.294 43.679-20.85 26.064-5.8163 42.1-6.4007 55.885-2.0367 12.168 3.8521 21.012 10.897 25.685 20.46 2.4401 4.9937 2.9614 7.1207 2.9614 12.083 0 6.3189-1.632 10.963-5.45 15.509-4.7581 5.6653-10.512 8.5908-17.827 9.0648-4.0004 0.25917-6.6565-0.28909-11.659-2.4065-5.5182-2.3359-6.8292-2.6464-10.413-2.4663-4.7422 0.23827-7.3446 1.8494-9.1072 5.6383-0.71257 1.5318-0.85868 2.3364-0.85372 4.7011 6e-3 2.4204 0.14625 3.1427 0.93097 4.7636 2.3321 4.8171 7.0792 8.1044 13.651 9.4532 1.3832 0.28388 5.4603 0.83047 9.0601 1.2146 9.9772 1.0647 13.619 2.1974 16.578 5.1562 2.191 2.191 3.0582 4.2546 3.0556 7.271-3e-3 3.2853-1.075 5.6636-3.7622 8.3456-4.5617 4.5528-9.1489 5.9477-22.248 6.7648-7.5306 0.46979-33.947 0.69432-38.096 0.3238zm9.6333-37.628c2.3022-0.48728 3.3608-1.0459 5.2242-2.7567 1.9905-1.8275 2.7473-3.5281 2.7566-6.1944 0.013-3.7422-2.29-6.7327-6.9642-9.0427-2.549-1.2598-2.577-1.265-6.7725-1.265-4.9261 0-6.3896 0.48309-8.6778 2.8645-1.692 1.7609-2.4183 3.7743-2.4086 6.6773 0.0149 4.4577 2.9712 8.0948 7.8085 9.6066 1.7626 0.55084 6.6697 0.61085 9.0338 0.11045zm-56.4-1.3118c2.5616-0.71148 4.3071-4.0691 4.3071-8.285 0-2.6446-0.55099-4.0036-2.3544-5.8069-4.6983-4.6983-12.656-4.2594-16.064 0.88598-3.3538 5.0632-1.0984 10.787 5.0934 12.927 1.9781 0.68349 7.0027 0.83913 9.0181 0.27935zm9.5895-22.694c0.5099-0.37869 1.3802-1.5691 1.934-2.6453 0.91418-1.7765 1.0069-2.2553 1.0069-5.1975 0-3.0407-0.06102-3.3288-0.98892-4.6689-1.9917-2.8765-5.1809-4.3948-9.2066-4.3832-5.6097 0.01613-9.4286 3.6998-9.4365 9.1023-0.0029 1.9694 0.12376 2.4131 1.0876 3.8104 2.3519 3.4095 6.0767 4.9442 11.576 4.7693 2.4994-0.07953 3.2804-0.23212 4.0278-0.78713zm20.408-17.085c3.9776-1.0304 6.216-3.3995 6.465-6.8425 0.17123-2.3673-0.28457-3.346-2.5415-5.4571-4.2422-3.9681-10.766-5.135-15.415-2.7573-2.7524 1.4076-3.9016 3.1464-4.072 6.161-0.07162 1.2674 0.04156 2.8249 0.25149 3.461 0.81692 2.4753 3.7649 4.8941 6.8676 5.6348 1.8485 0.44129 6.3835 0.33403 8.4439-0.19972zm24.838-8.3912c1.1003-0.28502 2.5586-0.8858 3.2406-1.3351 2.2598-1.4885 3.7814-5.21 3.1533-7.7125-0.12133-0.48341-0.83121-1.5414-1.5775-2.351-6.0274-6.5389-17.005-6.49-20.017 0.08921-1.418 3.0972-0.75525 6.1221 1.9295 8.8068 1.5429 1.5429 2.8899 2.2909 4.8086 2.6703 2.3311 0.46092 6.3431 0.38143 8.4628-0.16768zm30.899-3.0214c2.654-1.3573 3.9014-3.1404 4.098-5.8575 0.18882-2.6103-0.26847-3.6527-2.4954-5.688-3.2587-2.9782-7.5543-4.3703-11.872-3.8473-9.484 1.1486-10.734 12.333-1.7815 15.941 1.3588 0.54756 2.2835 0.6346 5.8548 0.55113 3.9441-0.09221 4.378-0.16916 6.1965-1.0991z" fill="#00a960" stroke="#00a960" stroke-width=".2943"/>
 </g>
</svg>
