<?xml version="1.0" encoding="UTF-8" standalone="no"?>
<svg
   xmlns:dc="http://purl.org/dc/elements/1.1/"
   xmlns:cc="http://creativecommons.org/ns#"
   xmlns:rdf="http://www.w3.org/1999/02/22-rdf-syntax-ns#"
   xmlns:svg="http://www.w3.org/2000/svg"
   xmlns="http://www.w3.org/2000/svg"
   xmlns:sodipodi="http://sodipodi.sourceforge.net/DTD/sodipodi-0.dtd"
   xmlns:inkscape="http://www.inkscape.org/namespaces/inkscape"
   id="Capa_1"
   enable-background="new 0 0 512 512"
   height="21px"
   viewBox="0 0 512 512"
   width="21px"
   version="1.1"
   sodipodi:docname="background_color.svg"
   inkscape:version="0.92.3 (2405546, 2018-03-11)">
  <metadata
     id="metadata13">
    <rdf:RDF>
      <cc:Work
         rdf:about="">
        <dc:format>image/svg+xml</dc:format>
        <dc:type
           rdf:resource="http://purl.org/dc/dcmitype/StillImage" />
      </cc:Work>
    </rdf:RDF>
  </metadata>
  <defs
     id="defs11" />
  <sodipodi:namedview
     pagecolor="#ffffff"
     bordercolor="#00a960"
     borderopacity="1"
     objecttolerance="10"
     gridtolerance="10"
     guidetolerance="10"
     inkscape:pageopacity="0"
     inkscape:pageshadow="2"
     inkscape:window-width="1853"
     inkscape:window-height="929"
     id="namedview9"
     showgrid="false"
     inkscape:zoom="39.333333"
     inkscape:cx="7.8604462"
     inkscape:cy="9.1187126"
     inkscape:window-x="67"
     inkscape:window-y="27"
     inkscape:window-maximized="1"
     inkscape:current-layer="Capa_1" />
  <g
     id="g6" fill="#00a960">
    <path
       d="m507.607 216.525c5.857-5.857 5.857-15.355 0-21.213l-190.917-190.918c-5.858-5.858-15.355-5.858-21.213 0l-74.247 74.245 212.131 212.133z"
       id="path2" />
    <path
       d="m153.616 485.616c17.015-17.015 26.386-39.607 26.385-63.615 0-17.983 29.222-54.182 59.105-66.561 8.643-3.579 20.426-6.366 27.48.688 7.406 7.404 8.171 8.171 8.197 8.196.028.029.057.059.086.087 11.298 11.298 26.365 17.52 42.428 17.52 16.06-.001 31.128-6.224 42.426-17.522l52.426-52.425-212.131-212.132-52.427 52.427c-11.298 11.298-17.521 26.365-17.521 42.428 0 16.061 6.222 31.128 17.535 42.442.042.042.632.63 8.27 8.267 2.996 2.997 4.393 6.674 4.393 11.572 0 29.428-46.683 75.013-70.267 75.013-49.624-.001-89.999 40.372-90.001 89.998v.002c.001 24.009 9.372 46.601 26.387 63.613 17.014 17.016 39.606 26.386 63.614 26.386s46.601-9.37 63.615-26.384zm-78.616-63.616c0-8.284 6.716-15 15-15s15 6.716 15 15-6.716 15-15 15-15-6.715-15-15z"
       id="path4" />
  </g>
</svg>
