<?xml version="1.0" encoding="utf-8"?>
<!-- Svg Vector Icons : http://www.onlinewebfonts.com/icon -->
<!DOCTYPE svg PUBLIC "-//W3C//DTD SVG 1.1//EN" "http://www.w3.org/Graphics/SVG/1.1/DTD/svg11.dtd">
<svg version="1.1" xmlns="http://www.w3.org/2000/svg" xmlns:xlink="http://www.w3.org/1999/xlink" x="0px" y="0px" viewBox="0 0 1000 1000" enable-background="new 0 0 1000 1000" xml:space="preserve">
<metadata> Svg Vector Icons : http://www.onlinewebfonts.com/icon </metadata>
<g><path d="M986.4,431.9c-3.8-21.3-24.4-43-45.7-47.8l-15.9-3.7c-37.5-11.3-70.7-36.1-91.8-72.6c-21.1-36.7-26.1-78.4-16.9-116.6l0,0l5-15c6.3-20.7-1.9-49.4-18.6-63.6c0,0-15-12.7-57.3-37.1c-42.3-24.2-60.5-30.9-60.5-30.9c-20.6-7.5-49.4-0.4-64.4,15.6L609,72.1c-28.4,26.9-66.7,43.2-108.9,43.2c-42.3,0-80.9-16.5-109.3-43.6L380,60.1c-14.8-15.9-43.8-23.1-64.4-15.6c0,0-18.4,6.7-60.7,30.9c-42.3,24.6-57.1,37.3-57.1,37.3c-16.7,14-25,42.5-18.6,63.4l4.6,15.2c9,38.2,4.2,79.7-16.9,116.4c-21.1,36.7-54.8,61.7-92.4,72.8l-15.4,3.5c-21.1,4.8-41.9,26.3-45.7,47.8c0,0-3.5,19.2-3.5,68c0,48.8,3.5,68,3.5,68c3.8,21.5,24.4,43,45.7,47.8l15,3.5c37.7,11.1,71.5,36.1,92.6,73c21.1,36.7,26.1,78.4,16.9,116.6l0,0l-4.4,14.8c-6.3,20.7,1.9,49.4,18.6,63.6c0,0,15,12.7,57.3,37.1c42.3,24.4,60.5,30.9,60.5,30.9c20.6,7.5,49.4,0.4,64.4-15.6l10.6-11.3c28.6-27.1,67-43.6,109.5-43.6c42.5,0,81.1,16.7,109.5,43.8l0,0l10.6,11.3c14.8,15.9,43.8,23.1,64.4,15.6c0,0,18.4-6.7,60.7-30.9c42.3-24.4,57.1-37.1,57.1-37.1c16.7-14,25-42.7,18.6-63.6l-4.6-15.4c-9-38-4.2-79.5,16.9-116c21.1-36.7,54.9-61.9,92.6-73l0,0l15-3.5c21.1-4.8,41.9-26.3,45.7-47.8c0,0,3.5-19.2,3.5-68C989.8,451.1,986.4,431.9,986.4,431.9L986.4,431.9L986.4,431.9z M500.1,695.3c-107.8,0-195.4-87.4-195.4-195.4c0-107.8,87.4-195.2,195.4-195.2c107.8,0,195.4,87.4,195.4,195.4C695.3,607.9,607.9,695.3,500.1,695.3L500.1,695.3L500.1,695.3z"/></g>
</svg>