<?xml version="1.0" encoding="UTF-8"?>
<!-- This icon was created by Morgane Schieber (schieber.morgane@gmail.com) -->
<svg width="23" height="23" version="1.1" viewBox="0 0 5.5562 5.5563" xmlns="http://www.w3.org/2000/svg" xmlns:cc="http://creativecommons.org/ns#" xmlns:dc="http://purl.org/dc/elements/1.1/" xmlns:rdf="http://www.w3.org/1999/02/22-rdf-syntax-ns#">
 <metadata>
  <rdf:RDF>
   <cc:Work rdf:about="">
    <dc:format>image/svg+xml</dc:format>
    <dc:type rdf:resource="http://purl.org/dc/dcmitype/StillImage"/>
    <dc:title/>
   </cc:Work>
  </rdf:RDF>
 </metadata>
 <g fill="#00a960" stroke="#00a960">
  <path d="m2.9506 0.07395c-0.19013 0.6871-0.47923 1.3467-0.8556 1.9522-0.18931 0.30454-0.40081 0.59594-0.56779 0.91328-0.16697 0.31734-0.28946 0.66756-0.28266 1.0261 0.0060319 0.31808 0.1161 0.63207 0.30289 0.8896 0.18679 0.25753 0.44867 0.45843 0.74248 0.58044 0.32702 0.1358 0.69807 0.17369 1.0401 0.08216 0.28721-0.07685 0.5477-0.24275 0.75074-0.45994s0.34963-0.48432 0.43935-0.76777c0.061385-0.19392 0.096888-0.39722 0.090514-0.60053-0.0063744-0.20331-0.055605-0.40677-0.1554-0.58401-0.12772-0.22684-0.33027-0.40024-0.49818-0.59918-0.26403-0.3128-0.44199-0.6889-0.58869-1.0711-0.1653-0.43061-0.29472-0.87499-0.38647-1.327z" stroke-width=".011682"/>
 </g>
</svg>
