<?xml version="1.0" encoding="UTF-8" standalone="no"?>
<svg
   xmlns:dc="http://purl.org/dc/elements/1.1/"
   xmlns:cc="http://creativecommons.org/ns#"
   xmlns:rdf="http://www.w3.org/1999/02/22-rdf-syntax-ns#"
   xmlns:svg="http://www.w3.org/2000/svg"
   xmlns="http://www.w3.org/2000/svg"
   xmlns:sodipodi="http://sodipodi.sourceforge.net/DTD/sodipodi-0.dtd"
   xmlns:inkscape="http://www.inkscape.org/namespaces/inkscape"
   width="257px"
   height="27px"
   viewBox="0 0 257 27"
   version="1.1"
   id="svg13"
   sodipodi:docname="ico.logo.160x30.svg"
   inkscape:version="0.92.3 (2405546, 2018-03-11)">
  <metadata
     id="metadata19">
    <rdf:RDF>
      <cc:Work
         rdf:about="">
        <dc:format>image/svg+xml</dc:format>
        <dc:type
           rdf:resource="http://purl.org/dc/dcmitype/StillImage" />
      </cc:Work>
    </rdf:RDF>
  </metadata>
  <defs
     id="defs17">
    <inkscape:perspective
       sodipodi:type="inkscape:persp3d"
       inkscape:vp_x="0 : 13.5 : 1"
       inkscape:vp_y="0 : 1000 : 0"
       inkscape:vp_z="157 : 13.5 : 1"
       inkscape:persp3d-origin="78.5 : 9 : 1"
       id="perspective111" />
  </defs>
  <sodipodi:namedview
     pagecolor="#ffffff"
     bordercolor="#666666"
     borderopacity="1"
     objecttolerance="10"
     gridtolerance="10"
     guidetolerance="10"
     inkscape:pageopacity="0"
     inkscape:pageshadow="2"
     inkscape:window-width="1853"
     inkscape:window-height="929"
     id="namedview15"
     showgrid="false"
     showguides="false"
     inkscape:zoom="4.356688"
     inkscape:cx="321.17389"
     inkscape:cy="13.255551"
     inkscape:window-x="0"
     inkscape:window-y="27"
     inkscape:window-maximized="1"
     inkscape:current-layer="svg13" />
  <!-- Generator: Sketch 53.2 (72643) - https://sketchapp.com -->
  <title
     id="title2">ico.logo.160x30</title>
  <desc
     id="desc4">Created with Sketch.</desc>
  <g
     id="Page-1"
     stroke="none"
     stroke-width="1"
     fill="none"
     fill-rule="evenodd">
    <g
       id="1a-desktop-table_scan_list"
       transform="translate(-64.000000, -51.000000)"
       fill="#00A960"
       fill-rule="nonzero">
      <g
         id="ico.logo.160x30"
         transform="translate(64.000000, 51.000000)">
        <path
           d="M119.315335,2.90909767 C119.20454,1.97657015 118.336643,1.43182635 117.191757,1.43182635 C115.936077,1.43182635 115.105112,2.09659845 115.105112,3.00142713 C115.105112,4.01705116 116.231531,4.38636899 116.933235,4.5710279 L117.893461,4.82955039 C118.872153,5.08807287 120.55255,5.6605155 120.55255,7.43324108 C120.55255,8.96591008 119.315335,10.166193 117.13636,10.166193 C115.105112,10.166193 113.849431,9.11363721 113.738636,7.56250232 L114.920453,7.56250232 C115.012782,8.63352403 116.00994,9.1321031 117.13636,9.1321031 C118.447438,9.1321031 119.444596,8.44886512 119.444596,7.41477519 C119.444596,6.47301473 118.558233,6.12216279 117.561075,5.84517442 L116.397724,5.51278837 C114.920453,5.08807287 113.997158,4.33097132 113.997158,3.0568248 C113.997158,1.46875814 115.419032,0.416202322 117.228689,0.416202322 C119.056812,0.416202322 120.372507,1.48260755 120.423288,2.90909767 L119.315335,2.90909767 Z M132.932915,3.5000062 L131.788029,3.5000062 C131.511041,2.1889279 130.384622,1.48722403 129.128941,1.48722403 C127.411613,1.48722403 126.063603,2.81676821 126.063603,5.27273178 C126.063603,7.72869535 127.411613,9.05823953 129.128941,9.05823953 C130.384622,9.05823953 131.511041,8.35653566 131.788029,7.04545736 L132.932915,7.04545736 C132.582063,8.98437597 131.030928,10.1292612 129.128941,10.1292612 C126.709909,10.1292612 124.95565,8.2642062 124.95565,5.27273178 C124.95565,2.28125736 126.709909,0.416202322 129.128941,0.416202322 C131.030928,0.416202322 132.582063,1.56108759 132.932915,3.5000062 Z M138.056186,10 L136.855903,10 L140.32749,0.545463562 L141.509307,0.545463562 L144.980895,10 L143.780612,10 L142.829619,7.32244574 L139.007179,7.32244574 L138.056186,10 Z M139.367264,6.3068217 L142.469534,6.3068217 L140.955331,2.04120077 L140.881467,2.04120077 L139.367264,6.3068217 Z M156.844216,0.545463562 L156.844216,10 L155.736262,10 L150.584278,2.57671162 L150.491949,2.57671162 L150.491949,10 L149.347064,10 L149.347064,0.545463562 L150.455017,0.545463562 L155.625467,7.98721783 L155.717796,7.98721783 L155.717796,0.545463562 L156.844216,0.545463562 Z"
           id="SCAN" />
        <g
           id="Group">
          <path
             d="M88.1242,18.9726317 C88.1242,20.6569072 87.6041209,22.2179215 86.7180777,23.4992438 C85.8394868,22.2212533 85.3242,20.6668428 85.3242,18.9902934 L85.3242,10.151549 L88.1242,10.151549 L88.1242,18.9726317 Z M85.3242,10.151549 C85.3242,8.25681215 88.1242,8.25681215 88.1242,10.151549 L88.1242,18.9902934 C88.1242,21.7772589 90.3500745,24.0366543 93.0958,24.0366543 C93.8689986,24.0366543 94.4958,24.6728812 94.4958,25.4577069 C94.4958,26.2425326 93.8689986,26.8787595 93.0958,26.8787595 C90.4554043,26.8787595 88.1225522,25.5421798 86.7180777,23.4992438 C85.312265,25.5322135 82.9851895,26.8610979 80.3524,26.8610979 L80.230916,26.8610128 L78.6252,26.8787595 L76.0416,26.8787595 C72.9873842,26.8787595 70.5114,24.3657106 70.5114,21.2656016 L70.5114,8.88539109 C70.5114,7.96760965 69.778418,7.22357155 68.8744,7.22357155 C68.2389576,7.22357155 67.6609894,7.59671339 67.3915333,8.18094143 C67.3574974,8.2547372 67.3172716,8.32542484 67.2713004,8.39222286 L64.1465004,12.932689 C63.5898082,13.7415863 62.4103204,13.7425328 61.8523688,12.9345301 L58.7143688,8.39020679 C58.6682471,8.32341527 58.6278763,8.25271717 58.5937036,8.17889566 C58.3237835,7.59580083 57.7464292,7.22357155 57.112,7.22357155 L57.1088,7.22357155 C56.204782,7.22357155 55.4718,7.96760965 55.4718,8.88539109 L55.4718,21.2656016 C55.4718,24.3657106 52.9958158,26.8787595 49.9416,26.8787595 L38.2248,26.8787595 C36.7798392,26.8787595 36.282018,24.926861 37.5454646,24.2151651 C40.3551111,22.6324993 42.1342,19.6300966 42.1342,16.3093761 C42.1342,11.2118661 37.9832468,7.12019239 32.9481646,7.27931946 C28.3940833,7.42323228 24.6290884,11.1255953 24.3501655,15.7365362 C24.1409486,19.1932676 25.8557773,22.3845436 28.7211335,24.0989125 L28.9237932,24.2117256 C30.1940191,24.9188136 29.6993039,26.8787595 28.2506,26.8787595 L17.1836,26.8787595 C15.0989628,26.8787595 13.1327334,25.8953626 11.8744007,24.2325582 L6.48513581,17.3073871 C5.60259881,16.1742322 5.90447553,14.5119282 7.12657352,13.7725488 L11.4378127,11.1630664 C12.3522868,10.6095998 12.9124,9.60872298 12.9124,8.52809786 C12.9124,7.82821327 12.3534868,7.26092493 11.664,7.26092493 L3.945,7.26092493 C3.31268473,7.26092493 2.8,7.78134746 2.8,8.42314297 L2.8,25.4577069 C2.8,26.2425326 2.17319865,26.8787595 1.4,26.8787595 C0.62680135,26.8787595 1.13686838e-13,26.2425326 1.13686838e-13,25.4577069 L1.13686838e-13,8.42314297 C1.13686838e-13,6.2117306 1.76625341,4.41881967 3.945,4.41881967 L11.664,4.41881967 C13.8998514,4.41881967 15.7124,6.25852869 15.7124,8.52809786 C15.7124,10.6098614 14.6333661,12.5380075 12.8718265,13.6041431 L8.99670156,15.9496567 L14.0832097,22.4859837 C14.8231502,23.4636418 15.9688461,24.0366543 17.1836,24.0366543 L24.345499,24.0366543 C22.4103338,21.7447817 21.363339,18.7361084 21.5554316,15.5623083 C21.9230418,9.48525629 26.8623091,4.62815536 32.8610315,4.43859067 C39.4770412,4.22950047 44.9342,9.60872587 44.9342,16.3093761 C44.9342,19.2114487 43.8994639,21.9297565 42.1207781,24.0366557 L49.9416,24.0366543 C51.4494605,24.0366543 52.6718,22.7960167 52.6718,21.2656016 L52.6718,8.88539109 C52.6718,6.3979872 54.6583562,4.38146628 57.1088,4.38146628 L57.112,4.38146628 C58.7876491,4.38146628 60.3161651,5.33921983 61.069996,6.84982973 L62.9968694,9.64024889 L64.9133399,6.85553642 C65.6660879,5.34170262 67.1963525,4.38146628 68.8744,4.38146628 C71.3248438,4.38146628 73.3114,6.3979872 73.3114,8.88539109 L73.3114,21.2656016 C73.3114,22.7960167 74.5337395,24.0366543 76.0416,24.0366543 L78.609884,24.0367393 L80.2156,24.0189926 L80.3524,24.0189926 C83.0981772,24.0189926 85.3242,21.7595448 85.3242,18.9726317 L85.3242,10.151549 Z"
             id="Stroke-2" />
          <path
             d="M87.2362968,11.4800822 C86.3078903,11.8508521 85.3062491,11.1450255 85.3239401,10.1325018 L85.3605317,8.03822642 C85.3654646,5.24459027 86.9278262,2.74421567 89.4309149,1.81959456 L94.1211149,0.0869253847 C95.0342339,-0.250402057 95.99992,0.435959577 95.99992,1.42228658 L95.99992,3.02787305 C95.99992,6.13667057 94.0812289,8.89413229 91.1906686,9.90085813 L87.2362968,11.4800822 Z M90.1959432,7.2439421 C90.2173842,7.23537936 90.2390303,7.22735519 90.2608616,7.21987694 C91.8919321,6.66115666 93.0178569,5.1853214 93.1797842,3.4591608 L90.3884894,4.49033016 C89.0397323,4.98855032 88.16052,6.3983733 88.16052,8.05149711 L88.1604734,8.05683048 L90.1959432,7.2439421 Z"
             id="Stroke-4" />
        </g>
      </g>
    </g>
  </g>
  <text
     xml:space="preserve"
     style="font-style:normal;font-weight:normal;font-size:40px;line-height:1.25;font-family:sans-serif;letter-spacing:0px;word-spacing:0px;fill:#000000;fill-opacity:1;stroke:none"
     x="115.56944"
     y="5.7682748"
     id="text107"><tspan
       sodipodi:role="line"
       id="tspan105"
       x="115.56944"
       y="41.158901" /></text>
  <path
     style="fill:#ff0000;fill-opacity:0"
     id="path127"
     d="m 84.25569,16.379804 c 1.248995,-0.152306 2.4768,-0.451518 3.704702,-0.720374 2.531152,-0.544498 5.098915,-0.87828 7.672749,-1.138058 0.392453,-0.03324 0.784905,-0.06648 1.177358,-0.09972 0,0 -1.251368,0.924853 -1.251368,0.924853 v 0 c -0.387144,0.03046 -0.774287,0.06092 -1.161431,0.09138 -2.584319,0.254869 -5.159602,0.605454 -7.694975,1.17811 -1.264746,0.286567 -2.527876,0.60204 -3.813972,0.777918 0,0 1.366937,-1.014106 1.366937,-1.014106 z"
     inkscape:connector-curvature="0" />
  <path
     style="fill:#ff0000;fill-opacity:0"
     id="path129"
     d="m 84.63503,13.896104 c 0.889495,0.08563 1.780788,0.149632 2.671748,0.218361 0.804615,0.08148 1.615685,0.06004 2.420916,0.123096 0.379702,0.03153 0.757029,0.08981 1.133054,0.15048 0,0 -1.371767,0.965112 -1.371767,0.965112 v 0 c -0.375387,-0.05453 -0.751486,-0.107789 -1.129854,-0.136934 -0.796814,-0.05779 -1.596677,-0.07141 -2.392673,-0.143821 -0.903904,-0.07144 -1.808494,-0.134894 -2.713533,-0.189584 0,0 1.382109,-0.98671 1.382109,-0.98671 z"
     inkscape:connector-curvature="0" />
  <rect
     style="fill:#ffffff;fill-opacity:1"
     id="rect4643"
     width="45.372711"
     height="10.281907"
     x="111.55264"
     y="0.16442756" />
  <text
     xml:space="preserve"
     style="font-style:normal;font-variant:normal;font-weight:normal;font-stretch:normal;font-size:13.88264465px;line-height:1.25;font-family:sans-serif;-inkscape-font-specification:sans-serif;letter-spacing:0px;word-spacing:0px;fill:#00a960;fill-opacity:1;stroke:none;stroke-width:0.34706616"
     x="104.61575"
     y="10.877575"
     id="text23"
     transform="scale(1.056316,0.94668641)"><tspan
       sodipodi:role="line"
       id="tspan21"
       x="104.61575"
       y="10.877575"
       style="font-style:normal;font-variant:normal;font-weight:normal;font-stretch:normal;line-height:1.25;font-family:'Liberation Sans Narrow';-inkscape-font-specification:'Liberation Sans Narrow';letter-spacing:1px;stroke-width:0.34706616">PLANT 3D EXPLORER</tspan></text>
</svg>
