<?xml version="1.0" encoding="UTF-8"?>
<svg width="30px" height="30px" viewBox="0 0 30 30" version="1.1" xmlns="http://www.w3.org/2000/svg" xmlns:xlink="http://www.w3.org/1999/xlink">
    <!-- Generator: Sketch 53.2 (72643) - https://sketchapp.com -->
    <title>ico.search.30x30</title>
    <desc>Created with Sketch.</desc>
    <g id="Page-1" stroke="none" stroke-width="1" fill="none" fill-rule="evenodd">
        <g id="1b-desktop-table_scan_list_no_results" transform="translate(-1056.000000, -247.000000)" fill="#00A960" fill-rule="nonzero">
            <g id="Group-8" transform="translate(64.000000, 211.000000)">
                <g id="Group" transform="translate(992.000000, 21.000000)">
                    <g id="Group-4">
                        <path d="M21.1233304,34.0020101 L29.1213203,42 L27,44.1213203 L19.0020101,36.1233304 C17.0628185,37.6138559 14.6348943,38.5 12,38.5 C5.64872538,38.5 0.5,33.3512746 0.5,27 C0.5,20.6487254 5.64872538,15.5 12,15.5 C18.3512746,15.5 23.5,20.6487254 23.5,27 C23.5,29.6348943 22.6138559,32.0628185 21.1233304,34.0020101 Z M12,35.5 C16.6944204,35.5 20.5,31.6944204 20.5,27 C20.5,22.3055796 16.6944204,18.5 12,18.5 C7.30557963,18.5 3.5,22.3055796 3.5,27 C3.5,31.6944204 7.30557963,35.5 12,35.5 Z" id="ico.search.30x30"></path>
                    </g>
                </g>
            </g>
        </g>
    </g>
</svg>