<?xml version="1.0" encoding="UTF-8"?>
<svg width="14px" height="20px" viewBox="0 0 14 20" version="1.1" xmlns="http://www.w3.org/2000/svg" xmlns:xlink="http://www.w3.org/1999/xlink">
    <!-- Generator: Sketch 53.2 (72643) - https://sketchapp.com -->
    <title>ico.left_click_to_rotate.14x20</title>
    <desc>Created with Sketch.</desc>
    <g id="Page-1" stroke="none" stroke-width="1" fill="none" fill-rule="evenodd">
        <g id="2a-desktop-interaction_w_graph" transform="translate(-760.000000, -497.000000)">
            <g id="Group-16" transform="translate(740.000000, 470.000000)">
                <g id="Group-8" transform="translate(20.000000, 23.000000)">
                    <g id="ico.left_click_to_rotate.14x20" transform="translate(0.000000, 4.000000)">
                        <path d="M7,2 C4.23857625,2 2,4.23857625 2,7 L2,13 C2,15.7614237 4.23857625,18 7,18 C9.76142375,18 12,15.7614237 12,13 L12,7 C12,4.23857625 9.76142375,2 7,2 Z M7,0 C10.8659932,-7.10171439e-16 14,3.13400675 14,7 L14,13 C14,16.8659932 10.8659932,20 7,20 C3.13400675,20 4.73447626e-16,16.8659932 0,13 L0,7 C-4.73447626e-16,3.13400675 3.13400675,7.10171439e-16 7,0 Z" id="Rectangle" fill="#97ACA3" fill-rule="nonzero"></path>
                        <path d="M7,0 L7,0 L7,9 L0,9 L0,7 C-4.73447626e-16,3.13400675 3.13400675,7.10171439e-16 7,0 Z" id="Rectangle" fill="#00A960"></path>
                    </g>
                </g>
            </g>
        </g>
    </g>
</svg>