<?xml version="1.0" encoding="UTF-8"?>
<svg width="25px" height="31px" viewBox="0 0 25 31" version="1.1" xmlns="http://www.w3.org/2000/svg" xmlns:xlink="http://www.w3.org/1999/xlink">
    <!-- Generator: Sketch 53.2 (72643) - https://sketchapp.com -->
    <title>ico.logo_minified.25x31</title>
    <desc>Created with Sketch.</desc>
    <g id="Symbols" stroke="none" stroke-width="1" fill="none" fill-rule="evenodd">
        <g id="scan.header" transform="translate(-25.000000, -24.000000)" fill="#00A960">
            <g id="ico.logo_minified.25x31">
                <path d="M37.2182619,42.1515199 L37.2182619,48.7061876 C37.2182619,51.0773448 39.159194,53.0060771 41.5449318,53.0060771 L48.9965235,53.0060771 C49.5508069,53.0060771 50,53.4522391 50,54.0030385 C50,54.5538379 49.5508069,55 48.9965235,55 L41.5394997,55 C41.5382953,55 41.5370914,54.9999979 41.535888,54.9999937 C39.3036862,54.9968779 37.3385461,53.8404093 36.2126961,52.0990124 C35.0913847,53.8319648 33.1412597,54.985467 30.9247528,54.9993772 C30.9115904,54.9997924 30.898637,55 30.8852656,55 L26.0030587,55 C25.4489842,55 25,54.5538379 25,54.0030385 C25,53.4522391 25.4489842,53.0060771 26.0030587,53.0060771 L30.8482855,53.0060771 C30.8601944,53.0058694 30.8725211,53.0054542 30.8846388,53.0054542 C33.2705856,53.0054542 35.2117267,51.0704936 35.2117267,48.6918623 L35.2117267,41.5074625 C35.2111167,41.4900043 35.2109677,41.4724789 35.2112879,41.4549019 L35.2420002,39.7302541 C35.2420002,37.4662256 36.5354675,35.5242061 38.5363617,34.8004644 L42.4600114,33.3812164 C42.7681787,33.2705583 43.1101923,33.3149876 43.3786635,33.5016324 C43.6469258,33.6880696 43.8065461,33.9930543 43.8065461,34.3181775 L43.8065461,35.6332033 C43.8065461,38.112735 42.2349969,40.3086661 39.8933427,41.1054879 L37.2182619,42.1515199 Z M48.9965235,50.0150473 C48.442449,50.0150473 47.9932558,49.5688853 47.9932558,49.0180858 L47.9932558,36.4215337 C47.9932558,30.6716695 43.2861298,25.9939229 37.5001045,25.9939229 C31.7136613,25.9939229 27.0065352,30.6716695 27.0065352,36.4215337 L27.0065352,49.0180858 C27.0065352,49.5688853 26.557551,50.0150473 26.0030587,50.0150473 C25.4489842,50.0150473 25,49.5688853 25,49.0180858 L25,36.4215337 C25,29.5723544 30.6071837,24 37.4996866,24 C44.3921895,24 50,29.5723544 50,36.4215337 L50,49.0180858 C50,49.5688853 49.5508069,50.0150473 48.9965235,50.0150473 Z M41.7983394,35.7426158 L39.2228959,36.6743866 C38.0236547,37.1078842 37.2487443,38.314328 37.2487443,39.7479013 L37.243939,39.9984911 L39.1804837,39.2413236 C39.1957354,39.2353028 39.2114049,39.2294896 39.2270744,39.2242993 C40.731558,38.7200053 41.7532112,37.3294081 41.7983394,35.7426158 Z"></path>
            </g>
        </g>
    </g>
</svg>